<svg width="33" height="29" viewBox="0 0 33 29" fill="none" xmlns="http://www.w3.org/2000/svg">
<path d="M3.78571 10.9286L6.21429 25.5071C6.28366 25.9244 6.4989 26.3035 6.82167 26.5769C7.14445 26.8503 7.55379 27.0002 7.97679 27H24.5946C25.0173 26.9998 25.4262 26.8497 25.7486 26.5763C26.0711 26.303 26.286 25.9241 26.3554 25.5071L28.7857 10.9286M3.78571 10.9286H9.14286M3.78571 10.9286H2M28.7857 10.9286H23.4286M28.7857 10.9286H30.5714M9.14286 10.9286L10.9286 2M9.14286 10.9286H23.4286M23.4286 10.9286L21.6429 2M10.9286 18.0714V19.8571M21.6429 18.0714V19.8571M16.2857 18.0714V19.8571" stroke="black" stroke-width="3" stroke-linecap="round" stroke-linejoin="round"/>
</svg>
