<svg width="25" height="25" viewBox="0 0 25 25" fill="none" xmlns="http://www.w3.org/2000/svg">
<path fill-rule="evenodd" clip-rule="evenodd" d="M14.5362 23.09L13.8587 24.235C13.255 25.255 11.7463 25.255 11.1413 24.235L10.4638 23.09C9.93875 22.2025 9.67625 21.7575 9.25375 21.5125C8.83125 21.2662 8.3 21.2575 7.2375 21.2387C5.6675 21.2125 4.68375 21.1162 3.85875 20.7737C3.10046 20.4597 2.41146 19.9993 1.83109 19.4189C1.25072 18.8385 0.790342 18.1495 0.47625 17.3913C3.72529e-08 16.2438 0 14.7875 0 11.875V10.625C0 6.53375 0 4.4875 0.92125 2.985C1.4363 2.144 2.14306 1.43681 2.98375 0.92125C4.4875 0 6.535 0 10.625 0H14.375C18.4663 0 20.5125 0 22.0163 0.92125C22.8568 1.43646 23.5635 2.1432 24.0788 2.98375C25 4.4875 25 6.535 25 10.625V11.875C25 14.7875 25 16.2438 24.525 17.3913C24.2108 18.1497 23.7502 18.8387 23.1696 19.4191C22.589 19.9995 21.8998 20.4598 21.1413 20.7737C20.3163 21.1162 19.3325 21.2112 17.7625 21.2387C16.7 21.2575 16.1688 21.2662 15.7463 21.5125C15.3238 21.7575 15.0612 22.2013 14.5362 23.09ZM7.5 12.1875C7.25136 12.1875 7.0129 12.2863 6.83709 12.4621C6.66127 12.6379 6.5625 12.8764 6.5625 13.125C6.5625 13.3736 6.66127 13.6121 6.83709 13.7879C7.0129 13.9637 7.25136 14.0625 7.5 14.0625H14.375C14.6236 14.0625 14.8621 13.9637 15.0379 13.7879C15.2137 13.6121 15.3125 13.3736 15.3125 13.125C15.3125 12.8764 15.2137 12.6379 15.0379 12.4621C14.8621 12.2863 14.6236 12.1875 14.375 12.1875H7.5ZM6.5625 8.75C6.5625 8.50136 6.66127 8.2629 6.83709 8.08709C7.0129 7.91127 7.25136 7.8125 7.5 7.8125H17.5C17.7486 7.8125 17.9871 7.91127 18.1629 8.08709C18.3387 8.2629 18.4375 8.50136 18.4375 8.75C18.4375 8.99864 18.3387 9.2371 18.1629 9.41291C17.9871 9.58873 17.7486 9.6875 17.5 9.6875H7.5C7.25136 9.6875 7.0129 9.58873 6.83709 9.41291C6.66127 9.2371 6.5625 8.99864 6.5625 8.75Z" fill="black"/>
</svg>
