<svg width="29" height="25" viewBox="0 0 29 25" fill="none" xmlns="http://www.w3.org/2000/svg">
<path fill-rule="evenodd" clip-rule="evenodd" d="M14.0625 25C10.6172 24.25 0 18.375 0 7.8125C0 6.17279 0.515917 4.57465 1.47467 3.24445C2.43342 1.91425 3.78641 0.919433 5.34197 0.400912C6.89753 -0.117609 8.57681 -0.133545 10.1419 0.355363C11.7071 0.84427 13.0787 1.81323 14.0625 3.125C15.0463 1.81323 16.4179 0.84427 17.9831 0.355363C19.5482 -0.133545 21.2275 -0.117609 22.783 0.400912C24.3386 0.919433 25.6916 1.91425 26.6503 3.24445C27.6091 4.57465 28.125 6.17279 28.125 7.8125C28.125 18.375 17.5078 24.25 14.0625 25Z" fill="black"/>
</svg>
