<svg width="25" height="25" viewBox="0 0 25 25" fill="none" xmlns="http://www.w3.org/2000/svg">
<path fill-rule="evenodd" clip-rule="evenodd" d="M0.418528 7.34375C-0.256472 8.7525 -0.018972 10.4013 0.456028 13.6975L0.803528 16.1188C1.41228 20.3538 1.71728 22.47 3.18603 23.735C4.65478 25 6.80853 25 11.1173 25H13.8823C18.191 25 20.3448 25 21.8135 23.735C23.2823 22.47 23.5873 20.3538 24.196 16.1188L24.5448 13.6975C25.0198 10.4013 25.2573 8.7525 24.581 7.34375C23.9048 5.935 22.4673 5.0775 19.591 3.365L17.8598 2.33375C15.2498 0.7775 13.9423 0 12.4998 0C11.0573 0 9.75103 0.7775 7.13978 2.33375L5.40853 3.365C2.53353 5.0775 1.09478 5.935 0.418528 7.34375ZM12.4998 20.9375C12.2511 20.9375 12.0127 20.8387 11.8369 20.6629C11.6611 20.4871 11.5623 20.2486 11.5623 20V16.25C11.5623 16.0014 11.6611 15.7629 11.8369 15.5871C12.0127 15.4113 12.2511 15.3125 12.4998 15.3125C12.7484 15.3125 12.9869 15.4113 13.1627 15.5871C13.3385 15.7629 13.4373 16.0014 13.4373 16.25V20C13.4373 20.2486 13.3385 20.4871 13.1627 20.6629C12.9869 20.8387 12.7484 20.9375 12.4998 20.9375Z" fill="black"/>
</svg>
