<svg width="31" height="25" viewBox="0 0 31 25" fill="none" xmlns="http://www.w3.org/2000/svg">
<path fill-rule="evenodd" clip-rule="evenodd" d="M15.3571 2.14286C13.8429 2.14286 12.6286 2.61143 9.73714 3.76857L5.72429 5.37143C4.28143 5.94857 3.28143 6.35143 2.63286 6.69143L2.46143 6.78571L2.63286 6.87857C3.28143 7.21857 4.28143 7.62143 5.72429 8.19857L9.73714 9.80286C12.63 10.96 13.8429 11.4286 15.3571 11.4286C16.8714 11.4286 18.0857 10.96 20.9771 9.80286L24.99 8.19857C26.4329 7.62143 27.4329 7.21857 28.0814 6.87857L28.2529 6.78571L28.0814 6.69286C27.4329 6.35286 26.4329 5.95 24.99 5.37286L20.9771 3.76857C18.0857 2.61143 16.8714 2.14286 15.3571 2.14286ZM9.10571 1.71286C11.7871 0.64 13.3871 0 15.3571 0C17.3271 0 18.9271 0.64 21.6086 1.71286L21.7729 1.77857L25.85 3.41C27.2143 3.95571 28.3186 4.39571 29.0771 4.79429C29.46 4.99429 29.8314 5.22286 30.1186 5.49857C30.4129 5.78143 30.7143 6.21 30.7143 6.78571C30.7143 7.36143 30.4143 7.79 30.1186 8.07286C29.8329 8.34857 29.4614 8.57571 29.0757 8.77714C28.5743 9.04 27.9186 9.32286 27.1386 9.64286C27.7971 9.90303 28.4439 10.1919 29.0771 10.5086C29.46 10.7086 29.8314 10.9371 30.1186 11.2129C30.4129 11.4957 30.7143 11.9243 30.7143 12.5C30.7143 13.0757 30.4143 13.5043 30.1186 13.7871C29.8329 14.0629 29.4614 14.29 29.0757 14.4914C28.5743 14.7543 27.9186 15.0371 27.1386 15.3571C27.7971 15.6173 28.4439 15.9062 29.0771 16.2229C29.46 16.4229 29.8314 16.6514 30.1186 16.9271C30.4129 17.21 30.7143 17.6386 30.7143 18.2143C30.7143 18.79 30.4143 19.2186 30.1186 19.5014C29.8329 19.7757 29.4614 20.0043 29.0757 20.2057C28.3186 20.6029 27.2143 21.0457 25.85 21.5914L21.7729 23.22L21.6086 23.2871C18.9271 24.36 17.3271 25 15.3571 25C13.3871 25 11.7871 24.36 9.10571 23.2871L8.94143 23.2214L4.86429 21.59C3.5 21.0457 2.39571 20.6043 1.63714 20.2057C1.25922 20.02 0.908765 19.783 0.595714 19.5014C0.301429 19.2186 0 18.79 0 18.2143C0 17.6386 0.3 17.21 0.595714 16.9271C0.881429 16.6514 1.25286 16.4243 1.63857 16.2229C2.14 15.96 2.79571 15.6771 3.57571 15.3571C2.91721 15.097 2.2704 14.8081 1.63714 14.4914C1.25922 14.3058 0.908765 14.0687 0.595714 13.7871C0.301429 13.5043 0 13.0757 0 12.5C0 11.9243 0.3 11.4957 0.595714 11.2129C0.881429 10.9371 1.25286 10.71 1.63857 10.5086C2.14 10.2457 2.79571 9.96286 3.57571 9.64286C2.91721 9.38268 2.2704 9.09384 1.63714 8.77714C1.25922 8.59146 0.908765 8.35446 0.595714 8.07286C0.301429 7.79 0 7.36143 0 6.78571C0 6.21 0.3 5.78143 0.595714 5.49857C0.881429 5.22286 1.25286 4.99571 1.63857 4.79429C2.39571 4.39714 3.5 3.95571 4.86429 3.40857L8.94143 1.78L9.10571 1.71286ZM6.45143 10.7971L5.72429 11.0871C4.28143 11.6643 3.28143 12.0671 2.63286 12.4071L2.46143 12.5L2.63286 12.5943C3.28143 12.9329 4.28143 13.3343 5.72429 13.9129L9.73714 15.5171C12.63 16.6743 13.8429 17.1429 15.3571 17.1429C16.8714 17.1429 18.0857 16.6743 20.9771 15.5171L24.99 13.9129C26.4329 13.3343 27.4329 12.9329 28.0814 12.5929L28.2529 12.5L28.0814 12.4057C27.4329 12.0671 26.4329 11.6643 24.99 11.0871L24.2614 10.7971L21.7729 11.7929L21.6086 11.8586C18.9271 12.9314 17.3271 13.5714 15.3571 13.5714C13.3871 13.5714 11.7871 12.9314 9.10571 11.8586L8.94143 11.7929L6.45143 10.7971ZM6.45143 16.5114L5.72429 16.8014C4.28143 17.3786 3.28143 17.7814 2.63286 18.1214L2.46143 18.2143L2.63286 18.3086C3.28143 18.6471 4.28143 19.0486 5.72429 19.6271L9.73714 21.2314C12.63 22.3886 13.8429 22.8571 15.3571 22.8571C16.8714 22.8571 18.0857 22.3886 20.9771 21.2314L24.99 19.6271C26.4329 19.0486 27.4329 18.6471 28.0814 18.3071L28.2529 18.2143L28.0814 18.12C27.4329 17.7814 26.4329 17.3786 24.99 16.8014L24.2614 16.5114L21.7729 17.5071L21.6086 17.5729C18.9271 18.6457 17.3271 19.2857 15.3571 19.2857C13.3871 19.2857 11.7871 18.6457 9.10571 17.5729L8.94143 17.5071L6.45143 16.5114Z" fill="black"/>
</svg>
