<svg width="32" height="25" viewBox="0 0 32 25" fill="none" xmlns="http://www.w3.org/2000/svg">
<path d="M0 1.97368C0 1.45023 0.207941 0.948216 0.578078 0.578078C0.948216 0.207941 1.45023 0 1.97368 0H21.7105C22.234 0 22.736 0.207941 23.1061 0.578078C23.4763 0.948216 23.6842 1.45023 23.6842 1.97368C23.6842 2.49714 23.4763 2.99915 23.1061 3.36929C22.736 3.73943 22.234 3.94737 21.7105 3.94737H1.97368C1.45023 3.94737 0.948216 3.73943 0.578078 3.36929C0.207941 2.99915 0 2.49714 0 1.97368ZM0 23.0263C0 22.5029 0.207941 22.0008 0.578078 21.6307C0.948216 21.2606 1.45023 21.0526 1.97368 21.0526H19.0789C19.6024 21.0526 20.1044 21.2606 20.4746 21.6307C20.8447 22.0008 21.0526 22.5029 21.0526 23.0263C21.0526 23.5498 20.8447 24.0518 20.4746 24.4219C20.1044 24.7921 19.6024 25 19.0789 25H1.97368C1.45023 25 0.948216 24.7921 0.578078 24.4219C0.207941 24.0518 0 23.5498 0 23.0263ZM1.97368 10.5263C1.45023 10.5263 0.948216 10.7343 0.578078 11.1044C0.207941 11.4745 0 11.9765 0 12.5C0 13.0235 0.207941 13.5255 0.578078 13.8956C0.948216 14.2657 1.45023 14.4737 1.97368 14.4737H29.6053C30.1287 14.4737 30.6307 14.2657 31.0009 13.8956C31.371 13.5255 31.5789 13.0235 31.5789 12.5C31.5789 11.9765 31.371 11.4745 31.0009 11.1044C30.6307 10.7343 30.1287 10.5263 29.6053 10.5263H1.97368Z" fill="black"/>
</svg>
