<svg width="23" height="25" viewBox="0 0 23 25" fill="none" xmlns="http://www.w3.org/2000/svg">
<path d="M11.1569 0C14.1159 0 16.9537 1.17545 19.046 3.26777C21.1383 5.36009 22.3137 8.19789 22.3137 11.1569C22.3137 14.9676 20.2361 18.0865 18.0469 20.3241C16.9531 21.43 15.7596 22.4325 14.4816 23.3191L13.9535 23.6786L13.7056 23.8435L13.2382 24.141L12.8217 24.3951L12.306 24.6951C11.956 24.8949 11.5599 25 11.1569 25C10.7538 25 10.3578 24.8949 10.0077 24.6951L9.49202 24.3951L8.8474 23.9984L8.60939 23.8435L8.10113 23.5051C6.72243 22.5722 5.43824 21.5069 4.26688 20.3241C2.07766 18.0853 0 14.9676 0 11.1569C0 8.19789 1.17545 5.36009 3.26777 3.26777C5.36009 1.17545 8.19789 0 11.1569 0ZM11.1569 7.43792C10.6685 7.43792 10.1849 7.53411 9.73369 7.721C9.28248 7.9079 8.87251 8.18184 8.52717 8.52717C8.18183 8.87251 7.9079 9.28249 7.721 9.73369C7.53411 10.1849 7.43792 10.6685 7.43792 11.1569C7.43792 11.6453 7.53411 12.1289 7.721 12.5801C7.9079 13.0313 8.18183 13.4412 8.52717 13.7866C8.87251 14.1319 9.28248 14.4058 9.73369 14.5927C10.1849 14.7796 10.6685 14.8758 11.1569 14.8758C12.1432 14.8758 13.0891 14.484 13.7866 13.7866C14.484 13.0891 14.8758 12.1432 14.8758 11.1569C14.8758 10.1705 14.484 9.22461 13.7866 8.52717C13.0891 7.82973 12.1432 7.43792 11.1569 7.43792Z" fill="black"/>
</svg>
