<svg width="25" height="25" viewBox="0 0 25 25" fill="none" xmlns="http://www.w3.org/2000/svg">
<path d="M23.9274 1.08231C23.45 0.595661 22.8446 0.254085 22.1812 0.0970797C21.5178 -0.0599261 20.8235 -0.025949 20.1786 0.195082L2.49655 6.10576C1.78341 6.33919 1.16032 6.78824 0.713287 7.39091C0.266255 7.99358 0.0173296 8.72017 0.000872106 9.47035C-0.0155854 10.2205 0.201237 10.9573 0.621408 11.579C1.04158 12.2007 1.64438 12.6767 2.34659 12.9412L8.89458 15.4404C9.04368 15.4974 9.17944 15.5845 9.29338 15.6963C9.40733 15.8081 9.49703 15.9422 9.55687 16.0902L12.0561 22.6507C12.3105 23.3429 12.7722 23.94 13.3782 24.3604C13.9842 24.7807 14.705 25.0041 15.4426 24.9999H15.53C16.2811 24.9863 17.009 24.7379 17.6118 24.2898C18.2146 23.8416 18.6621 23.216 18.8915 22.5007L24.8022 4.79367C25.0171 4.15503 25.0491 3.469 24.8946 2.81313C24.74 2.15726 24.405 1.55773 23.9274 1.08231ZM22.4904 4.00641L16.5172 21.7259C16.4479 21.9502 16.3086 22.1464 16.1197 22.2858C15.9308 22.4252 15.7023 22.5005 15.4676 22.5007C15.2342 22.5045 15.0052 22.4372 14.811 22.3078C14.6168 22.1783 14.4666 21.9928 14.3804 21.7759L11.8812 15.2155C11.7007 14.7384 11.4215 14.3048 11.0619 13.943C10.7022 13.5812 10.2703 13.2994 9.7943 13.1161L3.23382 10.6169C3.0125 10.5358 2.82226 10.3872 2.68997 10.1921C2.55767 9.99704 2.49001 9.76532 2.49655 9.52971C2.49674 9.29496 2.57204 9.06644 2.71145 8.87756C2.85085 8.68869 3.04704 8.54939 3.27131 8.48003L20.9909 2.56935C21.1943 2.48643 21.4174 2.46422 21.6332 2.5054C21.849 2.54658 22.0482 2.64938 22.2068 2.80139C22.3655 2.95339 22.4766 3.14809 22.527 3.36193C22.5773 3.57578 22.5646 3.79963 22.4904 4.00641Z" fill="black"/>
</svg>
