<svg width="27" height="25" viewBox="0 0 27 25" fill="none" xmlns="http://www.w3.org/2000/svg">
<path fill-rule="evenodd" clip-rule="evenodd" d="M5.88235 1.90122e-07C7.1867 -0.000331317 8.45417 0.43287 9.48545 1.23149C10.5167 2.0301 11.2533 3.14883 11.5794 4.41177H23.5294V7.35294H11.5794C11.218 8.73601 10.3656 9.94028 9.18136 10.7409C7.99709 11.5415 6.5619 11.8837 5.14379 11.7036C3.72568 11.5235 2.4216 10.8334 1.47504 9.76218C0.528485 8.69096 0.00417059 7.31185 0 5.88235C0 4.32226 0.619746 2.82606 1.7229 1.7229C2.82606 0.619746 4.32226 1.90122e-07 5.88235 1.90122e-07ZM5.88235 8.82353C6.6624 8.82353 7.4105 8.51366 7.96208 7.96208C8.51366 7.4105 8.82353 6.6624 8.82353 5.88235C8.82353 5.1023 8.51366 4.3542 7.96208 3.80263C7.4105 3.25105 6.6624 2.94118 5.88235 2.94118C5.1023 2.94118 4.3542 3.25105 3.80263 3.80263C3.25105 4.3542 2.94118 5.1023 2.94118 5.88235C2.94118 6.6624 3.25105 7.4105 3.80263 7.96208C4.3542 8.51366 5.1023 8.82353 5.88235 8.82353ZM20.5882 25C19.2839 25.0003 18.0164 24.5671 16.9851 23.7685C15.9539 22.9699 15.2173 21.8512 14.8912 20.5882H2.94118V17.6471H14.8912C15.2525 16.264 16.1049 15.0597 17.2892 14.2591C18.4735 13.4585 19.9087 13.1163 21.3268 13.2964C22.7449 13.4765 24.049 14.1666 24.9955 15.2378C25.9421 16.309 26.4664 17.6882 26.4706 19.1176C26.4706 20.6777 25.8508 22.1739 24.7477 23.2771C23.6445 24.3803 22.1483 25 20.5882 25ZM20.5882 22.0588C21.3683 22.0588 22.1164 21.7489 22.668 21.1974C23.2195 20.6458 23.5294 19.8977 23.5294 19.1176C23.5294 18.3376 23.2195 17.5895 22.668 17.0379C22.1164 16.4863 21.3683 16.1765 20.5882 16.1765C19.8082 16.1765 19.0601 16.4863 18.5085 17.0379C17.9569 17.5895 17.6471 18.3376 17.6471 19.1176C17.6471 19.8977 17.9569 20.6458 18.5085 21.1974C19.0601 21.7489 19.8082 22.0588 20.5882 22.0588Z" fill="black"/>
</svg>
