<svg width="25" height="25" viewBox="0 0 25 25" fill="none" xmlns="http://www.w3.org/2000/svg">
<path d="M11.7976 3.06172e-08C9.90392 0.000122742 8.03813 0.456048 6.35783 1.32925C4.67754 2.20246 3.23211 3.46729 2.14368 5.01687C1.05525 6.56645 0.355793 8.35525 0.104418 10.2321C-0.146957 12.109 0.0571311 14.0188 0.699439 15.8002C1.34175 17.5816 2.4034 19.1822 3.7947 20.4668C5.186 21.7514 6.86606 22.6822 8.69293 23.1806C10.5198 23.6791 12.4398 23.7304 14.2907 23.3304C16.1416 22.9304 17.8691 22.0907 19.327 20.8823L23.1569 24.7121C23.3602 24.9016 23.6291 25.0047 23.907 24.9998C24.1848 24.9949 24.45 24.8824 24.6465 24.6859C24.843 24.4893 24.9556 24.2242 24.9605 23.9463C24.9654 23.6685 24.8622 23.3996 24.6728 23.1962L20.8472 19.3693C22.2875 17.6478 23.2069 15.5513 23.4975 13.3256C23.788 11.1 23.4377 8.83766 22.4876 6.80415C21.5375 4.77064 20.0271 3.05032 18.1336 1.84512C16.2401 0.639921 14.0421 -0.000161637 11.7976 3.06172e-08Z" fill="black"/>
</svg>
