<svg width="26" height="29" viewBox="0 0 26 29" fill="none" xmlns="http://www.w3.org/2000/svg">
<path d="M2 12.5212C2 8.52375 2 6.525 2.4725 5.8525C2.94375 5.18125 4.8225 4.5375 8.58125 3.25125L9.2975 3.00625C11.2563 2.335 12.235 2 13.25 2C14.265 2 15.2437 2.335 17.2025 3.00625L17.9187 3.25125C21.6775 4.5375 23.5562 5.18125 24.0275 5.8525C24.5 6.525 24.5 8.525 24.5 12.5212V14.4888C24.5 21.5363 19.2012 24.9575 15.8762 26.4088C14.975 26.8025 14.525 27 13.25 27C11.975 27 11.525 26.8025 10.6238 26.4088C7.29875 24.9563 2 21.5375 2 14.4888V12.5212Z" stroke="black" stroke-width="3"/>
<path d="M10.125 15L11.9112 17L16.375 12" stroke="black" stroke-width="3" stroke-linecap="round" stroke-linejoin="round"/>
</svg>
