<svg width="26" height="29" viewBox="0 0 26 29" fill="none" xmlns="http://www.w3.org/2000/svg">
<path d="M17.0006 18.2507C17.0006 18.748 17.1982 19.2249 17.5498 19.5766C17.9015 19.9282 18.3784 20.1258 18.8757 20.1258C19.373 20.1258 19.8499 19.9282 20.2016 19.5766C20.5532 19.2249 20.7508 18.748 20.7508 18.2507C20.7508 17.7534 20.5532 17.2765 20.2016 16.9248C19.8499 16.5732 19.373 16.3756 18.8757 16.3756C18.3784 16.3756 17.9015 16.5732 17.5498 16.9248C17.1982 17.2765 17.0006 17.7534 17.0006 18.2507Z" stroke="black" stroke-width="3" stroke-linecap="round" stroke-linejoin="round"/>
<path d="M17.0056 9.25396C10.2203 8.78269 4.63011 7.77515 2 7.00012V18.3268C2 20.8207 2 22.067 2.77503 23.0833C3.55006 24.0996 4.61261 24.3871 6.73769 24.9621C10.1703 25.8896 13.7805 26.4422 17.0131 26.7572C20.3657 27.0847 22.0408 27.2484 23.2709 26.1246C24.5009 25.0021 24.5009 23.1958 24.5009 19.5856V17.068C24.5009 13.5616 24.5009 11.8091 23.4921 10.7215C22.4833 9.63398 20.6583 9.50647 17.0056 9.25396Z" stroke="black" stroke-width="3" stroke-linecap="round" stroke-linejoin="round"/>
<path d="M20.2832 9.50034C20.7545 7.72152 21.1833 4.48514 19.9095 2.87882C19.1032 1.86003 17.9031 1.95879 16.7281 2.06129C10.5478 2.60506 6.18142 3.70886 3.74132 4.45889C2.69128 4.7814 2 5.80644 2 6.95024" stroke="black" stroke-width="3" stroke-linecap="round" stroke-linejoin="round"/>
</svg>
